HIERARCHY
ROOT hip
{
  OFFSET 0 0 0
  CHANNELS 6 Xposition Yposition Zposition Zrotation Yrotation Xrotation
  JOINT abdomen
  {
    OFFSET 0 20.6881 -0.73152
    CHANNELS 3 Zrotation Xrotation Yrotation
    JOINT chest
    {
      OFFSET 0 11.7043 -0.48768
      CHANNELS 3 Zrotation Xrotation Yrotation
      JOINT neck
      {
        OFFSET 0 22.1894 -2.19456
        CHANNELS 3 Zrotation Xrotation Yrotation
        JOINT head
        {
          OFFSET -0.24384 7.07133 1.2192
          CHANNELS 3 Zrotation Xrotation Yrotation
          JOINT leftEye
          {
            OFFSET 4.14528 8.04674 8.04672
            CHANNELS 3 Zrotation Xrotation Yrotation
            End Site
            {
              OFFSET 1 0 0
            }
          }
          JOINT rightEye
          {
            OFFSET -3.6576 8.04674 8.04672
            CHANNELS 3 Zrotation Xrotation Yrotation
            End Site
            {
              OFFSET 1 0 0
            }
          }
        }
      }
      JOINT rCollar
      {
        OFFSET -2.68224 19.2634 -4.8768
        CHANNELS 3 Zrotation Xrotation Yrotation
        JOINT rShldr
        {
          OFFSET -8.77824 -1.95073 1.46304
          CHANNELS 3 Zrotation Xrotation Yrotation
          JOINT rForeArm
          {
            OFFSET -28.1742 -1.7115 0.48768
            CHANNELS 3 Zrotation Xrotation Yrotation
            JOINT rHand
            {
              OFFSET -22.5879 0.773209 7.07136
              CHANNELS 3 Zrotation Xrotation Yrotation
              JOINT rThumb1
              {
                OFFSET -1.2192 -0.487915 3.41376
                CHANNELS 3 Zrotation Xrotation Yrotation
                JOINT rThumb2
                {
                  OFFSET -3.37035 -0.52449 3.41376
                  CHANNELS 3 Zrotation Xrotation Yrotation
                  End Site
                  {
                    OFFSET -1.78271 -1.18214 1.43049
                  }
                }
              }
              JOINT rIndex1
              {
                OFFSET -7.75947 0.938293 5.60832
                CHANNELS 3 Zrotation Xrotation Yrotation
                JOINT rIndex2
                {
                  OFFSET -2.54057 -0.884171 1.56538
                  CHANNELS 3 Zrotation Xrotation Yrotation
                  End Site
                  {
                    OFFSET -1.62519 -0.234802 1.16502
                  }
                }
              }
              JOINT rMid1
              {
                OFFSET -8.24714 1.18213 3.41376
                CHANNELS 3 Zrotation Xrotation Yrotation
                JOINT rMid2
                {
                  OFFSET -3.10165 -0.590103 1.0647
                  CHANNELS 3 Zrotation Xrotation Yrotation
                  End Site
                  {
                    OFFSET -2.48547 -0.328903 0.83742
                  }
                }
              }
              JOINT rRing1
              {
                OFFSET -8.82822 0.546677 1.51678
                CHANNELS 3 Zrotation Xrotation Yrotation
                JOINT rRing2
                {
                  OFFSET -2.60934 -0.819778 -0.0198488
                  CHANNELS 3 Zrotation Xrotation Yrotation
                  End Site
                  {
                    OFFSET -2.33842 -0.294052 0.168128
                  }
                }
              }
              JOINT rPinky1
              {
                OFFSET -8.27202 -0.0477905 -0.4584
                CHANNELS 3 Zrotation Xrotation Yrotation
                JOINT rPinky2
                {
                  OFFSET -1.82734 -0.647385 -0.700984
                  CHANNELS 3 Zrotation Xrotation Yrotation
                  End Site
                  {
                    OFFSET -1.69225 -0.51767 -0.607171
                  }
                }
              }
            }
          }
        }
      }
      JOINT lCollar
      {
        OFFSET 2.68224 19.2634 -4.8768
        CHANNELS 3 Zrotation Xrotation Yrotation
        JOINT lShldr
        {
          OFFSET 8.77824 -1.95073 1.46304
          CHANNELS 3 Zrotation Xrotation Yrotation
          JOINT lForeArm
          {
            OFFSET 28.1742 -1.7115 0.48768
            CHANNELS 3 Zrotation Xrotation Yrotation
            JOINT lHand
            {
              OFFSET 22.5879 0.773209 7.07136
              CHANNELS 3 Zrotation Xrotation Yrotation
              JOINT lThumb1
              {
                OFFSET 1.2192 -0.487915 3.41376
                CHANNELS 3 Zrotation Xrotation Yrotation
                JOINT lThumb2
                {
                  OFFSET 3.37035 -0.52449 3.41376
                  CHANNELS 3 Zrotation Xrotation Yrotation
                  End Site
                  {
                    OFFSET 1.78271 -1.18214 1.43049
                  }
                }
              }
              JOINT lIndex1
              {
                OFFSET 7.75947 0.938293 5.60832
                CHANNELS 3 Zrotation Xrotation Yrotation
                JOINT lIndex2
                {
                  OFFSET 2.54057 -0.884171 1.56538
                  CHANNELS 3 Zrotation Xrotation Yrotation
                  End Site
                  {
                    OFFSET 1.62519 -0.234802 1.16502
                  }
                }
              }
              JOINT lMid1
              {
                OFFSET 8.24714 1.18213 3.41376
                CHANNELS 3 Zrotation Xrotation Yrotation
                JOINT lMid2
                {
                  OFFSET 3.10165 -0.590103 1.0647
                  CHANNELS 3 Zrotation Xrotation Yrotation
                  End Site
                  {
                    OFFSET 2.48547 -0.328903 0.83742
                  }
                }
              }
              JOINT lRing1
              {
                OFFSET 8.82822 0.546677 1.51678
                CHANNELS 3 Zrotation Xrotation Yrotation
                JOINT lRing2
                {
                  OFFSET 2.60934 -0.819778 -0.0198488
                  CHANNELS 3 Zrotation Xrotation Yrotation
                  End Site
                  {
                    OFFSET 2.33842 -0.294052 0.168128
                  }
                }
              }
              JOINT lPinky1
              {
                OFFSET 8.27202 -0.0477905 -0.4584
                CHANNELS 3 Zrotation Xrotation Yrotation
                JOINT lPinky2
                {
                  OFFSET 1.82734 -0.647385 -0.700984
                  CHANNELS 3 Zrotation Xrotation Yrotation
                  End Site
                  {
                    OFFSET 1.69225 -0.51767 -0.607171
                  }
                }
              }
            }
          }
        }
      }
    }
  }
  JOINT rButtock
  {
    OFFSET -8.77824 4.35084 1.2192
    CHANNELS 3 Zrotation Xrotation Yrotation
    JOINT rThigh
    {
      OFFSET 0 -1.70687 -2.19456
      CHANNELS 3 Zrotation Xrotation Yrotation
      JOINT rShin
      {
        OFFSET 0 -36.8199 0.73152
        CHANNELS 3 Zrotation Xrotation Yrotation
        JOINT rFoot
        {
          OFFSET 0.73152 -45.1104 -5.12064
          CHANNELS 3 Zrotation Xrotation Yrotation
          End Site
          {
            OFFSET -1.1221 -3.69964 12.103
          }
        }
      }
    }
  }
  JOINT lButtock
  {
    OFFSET 8.77824 4.35084 1.2192
    CHANNELS 3 Zrotation Xrotation Yrotation
    JOINT lThigh
    {
      OFFSET 0 -1.70687 -2.19456
      CHANNELS 3 Zrotation Xrotation Yrotation
      JOINT lShin
      {
        OFFSET 0 -36.8199 0.73152
        CHANNELS 3 Zrotation Xrotation Yrotation
        JOINT lFoot
        {
          OFFSET -0.73152 -45.1104 -5.12064
          CHANNELS 3 Zrotation Xrotation Yrotation
          End Site
          {
            OFFSET 1.1221 -3.69964 12.103
          }
        }
      }
    }
  }
}
MOTION
Frames:	4
Frame Time:	0.00833333
38.9659 84.5294 11.6063 0.0 0.0 0.0 -0.769347 -0.0038603 -0.0215834 -0.212073 -0.00504113 -0.036744 6.57126e-15 7.95139e-16 1.2424e-17 1.96921e-14 9.54166e-15 -4.65902e-18 -0.0 0.0 0.0 -0.0 0.0 0.0 3.22908e-15 7.95915e-18 1.49089e-16 7.15568e-14 -1.11816e-16 1.39149e-15 1.20031e-12 -3.52843e-13 3.18055e-15 1.37192e-11 3.88003e-13 1.27222e-14 3.23631e-11 7.92864e-14 4.13472e-14 5.58835e-11 1.36764e-13 5.48646e-14 3.23693e-11 8.15017e-14 3.18055e-14 7.73091 5.47488 0.417314 3.23628e-11 7.91163e-14 4.13472e-14 2.90554 0.965183 0.102902 3.23731e-11 7.94145e-14 3.57812e-14 10.2786 0.731801 0.0259123 3.23598e-11 8.11041e-14 3.49861e-14 2.22167 -0.733487 -0.20892 3.13225e-15 6.98852e-18 -4.96962e-17 6.84241e-14 -4.03781e-16 -7.95139e-16 1.19624e-12 3.61391e-13 -1.90833e-14 1.37276e-11 -3.45438e-13 4.77083e-14 3.23771e-11 4.14112e-14 3.18055e-14 5.59316e-11 7.63333e-14 7.31528e-14 3.23721e-11 4.29375e-14 4.45278e-14 -7.73091 5.47488 -0.417314 3.23763e-11 4.18442e-14 3.81667e-14 -2.90554 0.965183 -0.102902 3.23699e-11 4.19436e-14 3.97569e-14 -10.2786 0.731801 -0.0259123 3.23782e-11 4.17448e-14 3.49861e-14 -2.22167 -0.733487 0.20892 -2.03217e-16 0.0 -3.88251e-19 -0.0538952 -2.09674 -0.0177084 -0.00904029 -1.75492 -0.0760439 -0.528951 3.85119 0.13978 2.03217e-16 0.0 3.88251e-19 -1.11485 -4.98914 0.0938575 0.00115132 3.48419 -0.00507211 0.536992 1.50463 -0.0922779
31.496 83.0596 5.34074 83.8496 -86.892 -85.9832 -1.96916 -1.50302 0.541307 -0.824159 2.34779 0.179695 0.34215 3.43452 -0.291712 0.689802 -4.94384 -0.548621 -0.0 0.0 0.0 -0.0 0.0 0.0 5.56092e-15 1.62201e-13 6.58008e-15 22.2753 9.53694 1.35917 -8.49249 -5.38502 11.1949 0.0315392 3.9415 0.549218 -1.11084e-10 1.18358e-13 -6.1983e-11 -1.93092e-10 5.5161e-15 -1.05657e-10 -1.11079e-10 1.20917e-13 -6.19908e-11 7.73091 5.47488 0.417314 -1.11084e-10 1.19192e-13 -6.19823e-11 2.90554 0.965183 0.102902 -1.11075e-10 1.19201e-13 -6.19866e-11 10.2786 0.731801 0.0259123 -1.11086e-10 1.2001e-13 -6.19843e-11 2.22167 -0.733487 -0.20892 5.48445e-15 1.62194e-13 6.41313e-15 -19.7456 10.4868 -2.43847 8.22275 -5.1322 -10.9705 -0.013031 2.53262 -0.354681 3.67175e-11 -8.32588e-13 -4.20579e-11 6.33549e-11 -1.49573e-12 -7.28372e-11 3.67033e-11 -8.27649e-13 -4.20366e-11 -7.73091 5.47488 -0.417314 3.67179e-11 -8.29302e-13 -4.20525e-11 -2.90554 0.965183 -0.102902 3.67118e-11 -8.28637e-13 -4.20504e-11 -10.2786 0.731801 -0.0259123 3.67194e-11 -8.28373e-13 -4.20547e-11 -2.22167 -0.733487 0.20892 -2.03217e-16 0.0 -3.88251e-19 -2.93371 -6.62113 0.728473 0.0345689 11.1694 0.130147 -1.28901 -2.90533 -4.70332 2.03217e-16 0.0 3.88251e-19 0.252799 -8.45141 0.804894 -0.0156207 14.397 -0.185464 1.39189 -6.51327 4.57838
31.5105 83.0496 5.34758 83.54 -86.8718 -85.6087 -3.20376 -3.0876 1.13642 -1.49099 4.83488 0.409325 0.741958 7.07388 -0.601094 1.31084 -10.1718 -1.13783 -0.0 0.0 0.0 -0.0 0.0 0.0 8.12841e-15 3.39756e-13 1.36043e-14 45.3025 19.6001 2.92683 -15.2124 -10.3898 23.3318 -0.0180689 8.11374 1.13947 -2.78802e-10 6.56284e-13 -1.3337e-10 -4.84195e-10 7.22383e-13 -2.27248e-10 -2.78799e-10 6.5912e-13 -1.33376e-10 7.73091 5.47488 0.417314 -2.78802e-10 6.58133e-13 -1.33369e-10 2.90554 0.965183 0.102902 -2.78795e-10 6.57791e-13 -1.33372e-10 10.2786 0.731801 0.0259123 -2.78804e-10 6.57629e-13 -1.33366e-10 2.22167 -0.733487 -0.20892 8.07314e-15 3.39743e-13 1.34739e-14 -39.5875 21.5055 -5.30175 14.807 -9.92838 -22.8379 0.00742051 5.21117 -0.732156 4.54971e-11 -1.68706e-12 -9.12376e-11 7.84401e-11 -3.03922e-12 -1.58098e-10 4.54726e-11 -1.67836e-12 -9.12068e-11 -7.73091 5.47488 -0.417314 4.54988e-11 -1.68062e-12 -9.1233e-11 -2.90554 0.965183 -0.102902 4.54929e-11 -1.67941e-12 -9.12305e-11 -10.2786 0.731801 -0.0259123 4.54998e-11 -1.67864e-12 -9.12342e-11 -2.22167 -0.733487 0.20892 -2.03217e-16 0.0 -3.88251e-19 -5.84716 -11.3993 1.53698 -0.028673 24.8314 0.377905 -3.34369 -9.9207 -9.95984 2.03217e-16 0.0 3.88251e-19 1.79548 -12.1085 1.57564 0.049226 25.934 -0.404984 3.7529 -14.8228 9.78178
31.5148 83.0484 5.36065 83.6477 -86.811 -85.696 -4.28019 -4.49964 1.67168 -2.10199 7.05309 0.616787 1.13283 10.3025 -0.887881 1.77709 -14.826 -1.69623 -0.0 0.0 0.0 -0.0 0.0 0.0 1.02246e-14 4.86586e-13 1.94421e-14 65.3102 28.5418 4.57856 -19.4198 -13.6829 34.5467 -0.136219 11.8201 1.67938 -3.97977e-10 1.96502e-13 -1.86032e-10 -6.91042e-10 -2.56979e-13 -3.17081e-10 -3.97976e-10 1.99747e-13 -1.86036e-10 7.73091 5.47488 0.417314 -3.97977e-10 1.99345e-13 -1.86029e-10 2.90554 0.965183 0.102902 -3.97972e-10 1.98774e-13 -1.86031e-10 10.2786 0.731801 0.0259123 -3.97978e-10 1.97821e-13 -1.86023e-10 2.22167 -0.733487 -0.20892 1.01889e-14 4.86569e-13 1.93388e-14 -56.1833 31.2124 -8.41876 19.0064 -13.1355 -33.7747 0.0556774 7.5967 -1.07242 4.53984e-11 -2.58059e-12 -1.26237e-10 7.82014e-11 -4.63986e-12 -2.18658e-10 4.53656e-11 -2.56882e-12 -1.26199e-10 -7.73091 5.47488 -0.417314 4.54011e-11 -2.5716e-12 -1.26234e-10 -2.90554 0.965183 -0.102902 4.53954e-11 -2.5698e-12 -1.26231e-10 -10.2786 0.731801 -0.0259123 4.54017e-11 -2.56861e-12 -1.26234e-10 -2.22167 -0.733487 0.20892 -2.03217e-16 0.0 -3.88251e-19 -8.32786 -15.6596 2.29133 -0.210689 37.0163 0.670118 -6.30186 -15.9192 -14.9569 2.03217e-16 0.0 3.88251e-19 3.25484 -15.3668 2.28312 0.200443 36.2212 -0.655473 7.23104 -21.9209 14.9328
